<svg xmlns="http://www.w3.org/2000/svg" xmlns:xlink="http://www.w3.org/1999/xlink" width="454" zoomAndPan="magnify" viewBox="0 0 340.5 158.249993" height="211" preserveAspectRatio="xMidYMid meet" version="1.0"><defs><g/><clipPath id="ca38e6e9c8"><path d="M 286.96875 88.984375 L 302.046875 88.984375 L 302.046875 104.0625 L 286.96875 104.0625 Z M 286.96875 88.984375 " clip-rule="nonzero"/></clipPath><clipPath id="4ed3e9d6d1"><path d="M 294.507812 88.984375 C 290.34375 88.984375 286.96875 92.359375 286.96875 96.523438 C 286.96875 100.6875 290.34375 104.0625 294.507812 104.0625 C 298.671875 104.0625 302.046875 100.6875 302.046875 96.523438 C 302.046875 92.359375 298.671875 88.984375 294.507812 88.984375 Z M 294.507812 88.984375 " clip-rule="nonzero"/></clipPath><clipPath id="e17fed01c0"><path d="M 0.96875 0.984375 L 16.046875 0.984375 L 16.046875 16.0625 L 0.96875 16.0625 Z M 0.96875 0.984375 " clip-rule="nonzero"/></clipPath><clipPath id="2bee2f127f"><path d="M 8.507812 0.984375 C 4.34375 0.984375 0.96875 4.359375 0.96875 8.523438 C 0.96875 12.6875 4.34375 16.0625 8.507812 16.0625 C 12.671875 16.0625 16.046875 12.6875 16.046875 8.523438 C 16.046875 4.359375 12.671875 0.984375 8.507812 0.984375 Z M 8.507812 0.984375 " clip-rule="nonzero"/></clipPath><clipPath id="5b430e3e69"><rect x="0" width="17" y="0" height="17"/></clipPath></defs><g fill="#ffffff" fill-opacity="1"><g transform="translate(53.825957, 102.829767)"><g><path d="M 29.640625 -24.984375 C 31.410156 -24.703125 33.023438 -23.984375 34.484375 -22.828125 C 35.941406 -21.671875 37.097656 -20.234375 37.953125 -18.515625 C 38.816406 -16.796875 39.25 -14.960938 39.25 -13.015625 C 39.25 -10.554688 38.625 -8.335938 37.375 -6.359375 C 36.125 -4.390625 34.300781 -2.835938 31.90625 -1.703125 C 29.519531 -0.566406 26.703125 0 23.453125 0 L 5.359375 0 L 5.359375 -48.5 L 22.75 -48.5 C 26.050781 -48.5 28.859375 -47.953125 31.171875 -46.859375 C 33.492188 -45.773438 35.234375 -44.304688 36.390625 -42.453125 C 37.554688 -40.597656 38.140625 -38.507812 38.140625 -36.1875 C 38.140625 -33.3125 37.359375 -30.929688 35.796875 -29.046875 C 34.242188 -27.171875 32.191406 -25.816406 29.640625 -24.984375 Z M 11.6875 -27.5625 L 22.34375 -27.5625 C 25.3125 -27.5625 27.609375 -28.253906 29.234375 -29.640625 C 30.859375 -31.035156 31.671875 -32.960938 31.671875 -35.421875 C 31.671875 -37.878906 30.859375 -39.800781 29.234375 -41.1875 C 27.609375 -42.582031 25.265625 -43.28125 22.203125 -43.28125 L 11.6875 -43.28125 Z M 22.890625 -5.21875 C 26.046875 -5.21875 28.503906 -5.957031 30.265625 -7.4375 C 32.035156 -8.925781 32.921875 -10.992188 32.921875 -13.640625 C 32.921875 -16.328125 31.988281 -18.445312 30.125 -20 C 28.269531 -21.5625 25.789062 -22.34375 22.6875 -22.34375 L 11.6875 -22.34375 L 11.6875 -5.21875 Z M 22.890625 -5.21875 "/></g></g></g><g fill="#ffffff" fill-opacity="1"><g transform="translate(89.667123, 102.829767)"><g><path d="M 8.625 -44.328125 C 7.414062 -44.328125 6.394531 -44.742188 5.5625 -45.578125 C 4.726562 -46.421875 4.3125 -47.441406 4.3125 -48.640625 C 4.3125 -49.847656 4.726562 -50.867188 5.5625 -51.703125 C 6.394531 -52.535156 7.414062 -52.953125 8.625 -52.953125 C 9.789062 -52.953125 10.78125 -52.535156 11.59375 -51.703125 C 12.40625 -50.867188 12.8125 -49.847656 12.8125 -48.640625 C 12.8125 -47.441406 12.40625 -46.421875 11.59375 -45.578125 C 10.78125 -44.742188 9.789062 -44.328125 8.625 -44.328125 Z M 11.6875 -38.140625 L 11.6875 0 L 5.359375 0 L 5.359375 -38.140625 Z M 11.6875 -38.140625 "/></g></g></g><g fill="#ffffff" fill-opacity="1"><g transform="translate(99.966595, 102.829767)"><g><path d="M 11.6875 -31.03125 C 12.988281 -33.3125 14.890625 -35.171875 17.390625 -36.609375 C 19.898438 -38.046875 22.753906 -38.765625 25.953125 -38.765625 C 29.390625 -38.765625 32.476562 -37.953125 35.21875 -36.328125 C 37.957031 -34.703125 40.113281 -32.414062 41.6875 -29.46875 C 43.257812 -26.519531 44.046875 -23.097656 44.046875 -19.203125 C 44.046875 -15.359375 43.257812 -11.925781 41.6875 -8.90625 C 40.113281 -5.894531 37.941406 -3.550781 35.171875 -1.875 C 32.410156 -0.207031 29.335938 0.625 25.953125 0.625 C 22.660156 0.625 19.773438 -0.09375 17.296875 -1.53125 C 14.816406 -2.96875 12.945312 -4.800781 11.6875 -7.03125 L 11.6875 0 L 5.359375 0 L 5.359375 -51.5 L 11.6875 -51.5 Z M 37.578125 -19.203125 C 37.578125 -22.078125 36.992188 -24.582031 35.828125 -26.71875 C 34.671875 -28.851562 33.109375 -30.476562 31.140625 -31.59375 C 29.171875 -32.707031 27.003906 -33.265625 24.640625 -33.265625 C 22.316406 -33.265625 20.164062 -32.695312 18.1875 -31.5625 C 16.21875 -30.425781 14.640625 -28.78125 13.453125 -26.625 C 12.273438 -24.46875 11.6875 -21.972656 11.6875 -19.140625 C 11.6875 -16.265625 12.273438 -13.742188 13.453125 -11.578125 C 14.640625 -9.421875 16.21875 -7.773438 18.1875 -6.640625 C 20.164062 -5.503906 22.316406 -4.9375 24.640625 -4.9375 C 27.003906 -4.9375 29.171875 -5.503906 31.140625 -6.640625 C 33.109375 -7.773438 34.671875 -9.421875 35.828125 -11.578125 C 36.992188 -13.742188 37.578125 -16.285156 37.578125 -19.203125 Z M 37.578125 -19.203125 "/></g></g></g><g fill="#ffffff" fill-opacity="1"><g transform="translate(140.192292, 102.829767)"><g><path d="M 11.6875 -51.5 L 11.6875 0 L 5.359375 0 L 5.359375 -51.5 Z M 11.6875 -51.5 "/></g></g></g><g fill="#ffffff" fill-opacity="1"><g transform="translate(150.491764, 102.829767)"><g><path d="M 40.15625 -20.53125 C 40.15625 -19.320312 40.085938 -18.046875 39.953125 -16.703125 L 9.46875 -16.703125 C 9.695312 -12.941406 10.984375 -10.003906 13.328125 -7.890625 C 15.671875 -5.785156 18.515625 -4.734375 21.859375 -4.734375 C 24.585938 -4.734375 26.867188 -5.367188 28.703125 -6.640625 C 30.535156 -7.921875 31.820312 -9.628906 32.5625 -11.765625 L 39.390625 -11.765625 C 38.367188 -8.097656 36.328125 -5.113281 33.265625 -2.8125 C 30.203125 -0.519531 26.398438 0.625 21.859375 0.625 C 18.234375 0.625 14.992188 -0.1875 12.140625 -1.8125 C 9.285156 -3.4375 7.046875 -5.742188 5.421875 -8.734375 C 3.804688 -11.722656 3 -15.191406 3 -19.140625 C 3 -23.078125 3.785156 -26.53125 5.359375 -29.5 C 6.929688 -32.476562 9.144531 -34.765625 12 -36.359375 C 14.851562 -37.960938 18.140625 -38.765625 21.859375 -38.765625 C 25.472656 -38.765625 28.671875 -37.972656 31.453125 -36.390625 C 34.234375 -34.816406 36.378906 -32.648438 37.890625 -29.890625 C 39.398438 -27.128906 40.15625 -24.007812 40.15625 -20.53125 Z M 33.609375 -21.859375 C 33.609375 -24.265625 33.070312 -26.335938 32 -28.078125 C 30.9375 -29.816406 29.488281 -31.140625 27.65625 -32.046875 C 25.832031 -32.953125 23.804688 -33.40625 21.578125 -33.40625 C 18.367188 -33.40625 15.640625 -32.382812 13.390625 -30.34375 C 11.140625 -28.300781 9.851562 -25.472656 9.53125 -21.859375 Z M 33.609375 -21.859375 "/></g></g></g><g fill="#ffffff" fill-opacity="1"><g transform="translate(186.820096, 102.829767)"><g><path d="M 29.640625 -24.984375 C 31.410156 -24.703125 33.023438 -23.984375 34.484375 -22.828125 C 35.941406 -21.671875 37.097656 -20.234375 37.953125 -18.515625 C 38.816406 -16.796875 39.25 -14.960938 39.25 -13.015625 C 39.25 -10.554688 38.625 -8.335938 37.375 -6.359375 C 36.125 -4.390625 34.300781 -2.835938 31.90625 -1.703125 C 29.519531 -0.566406 26.703125 0 23.453125 0 L 5.359375 0 L 5.359375 -48.5 L 22.75 -48.5 C 26.050781 -48.5 28.859375 -47.953125 31.171875 -46.859375 C 33.492188 -45.773438 35.234375 -44.304688 36.390625 -42.453125 C 37.554688 -40.597656 38.140625 -38.507812 38.140625 -36.1875 C 38.140625 -33.3125 37.359375 -30.929688 35.796875 -29.046875 C 34.242188 -27.171875 32.191406 -25.816406 29.640625 -24.984375 Z M 11.6875 -27.5625 L 22.34375 -27.5625 C 25.3125 -27.5625 27.609375 -28.253906 29.234375 -29.640625 C 30.859375 -31.035156 31.671875 -32.960938 31.671875 -35.421875 C 31.671875 -37.878906 30.859375 -39.800781 29.234375 -41.1875 C 27.609375 -42.582031 25.265625 -43.28125 22.203125 -43.28125 L 11.6875 -43.28125 Z M 22.890625 -5.21875 C 26.046875 -5.21875 28.503906 -5.957031 30.265625 -7.4375 C 32.035156 -8.925781 32.921875 -10.992188 32.921875 -13.640625 C 32.921875 -16.328125 31.988281 -18.445312 30.125 -20 C 28.269531 -21.5625 25.789062 -22.34375 22.6875 -22.34375 L 11.6875 -22.34375 L 11.6875 -5.21875 Z M 22.890625 -5.21875 "/></g></g></g><g fill="#ffffff" fill-opacity="1"><g transform="translate(222.661262, 102.829767)"><g><path d="M 21.984375 0.625 C 18.421875 0.625 15.1875 -0.1875 12.28125 -1.8125 C 9.382812 -3.4375 7.113281 -5.742188 5.46875 -8.734375 C 3.820312 -11.722656 3 -15.191406 3 -19.140625 C 3 -23.035156 3.84375 -26.476562 5.53125 -29.46875 C 7.226562 -32.46875 9.535156 -34.765625 12.453125 -36.359375 C 15.378906 -37.960938 18.648438 -38.765625 22.265625 -38.765625 C 25.890625 -38.765625 29.160156 -37.960938 32.078125 -36.359375 C 35.003906 -34.765625 37.3125 -32.476562 39 -29.5 C 40.695312 -26.53125 41.546875 -23.078125 41.546875 -19.140625 C 41.546875 -15.191406 40.675781 -11.722656 38.9375 -8.734375 C 37.195312 -5.742188 34.84375 -3.4375 31.875 -1.8125 C 28.90625 -0.1875 25.609375 0.625 21.984375 0.625 Z M 21.984375 -4.9375 C 24.265625 -4.9375 26.398438 -5.46875 28.390625 -6.53125 C 30.390625 -7.601562 32.003906 -9.207031 33.234375 -11.34375 C 34.460938 -13.476562 35.078125 -16.078125 35.078125 -19.140625 C 35.078125 -22.203125 34.472656 -24.800781 33.265625 -26.9375 C 32.054688 -29.070312 30.476562 -30.660156 28.53125 -31.703125 C 26.582031 -32.742188 24.472656 -33.265625 22.203125 -33.265625 C 19.878906 -33.265625 17.753906 -32.742188 15.828125 -31.703125 C 13.898438 -30.660156 12.359375 -29.070312 11.203125 -26.9375 C 10.046875 -24.800781 9.46875 -22.203125 9.46875 -19.140625 C 9.46875 -16.023438 10.035156 -13.398438 11.171875 -11.265625 C 12.304688 -9.140625 13.820312 -7.550781 15.71875 -6.5 C 17.625 -5.457031 19.710938 -4.9375 21.984375 -4.9375 Z M 21.984375 -4.9375 "/></g></g></g><g fill="#ffffff" fill-opacity="1"><g transform="translate(260.38151, 102.829767)"><g><path d="M 13.078125 -32.921875 L 13.078125 -10.4375 C 13.078125 -8.582031 13.472656 -7.269531 14.265625 -6.5 C 15.054688 -5.738281 16.425781 -5.359375 18.375 -5.359375 L 23.03125 -5.359375 L 23.03125 0 L 17.328125 0 C 13.804688 0 11.160156 -0.8125 9.390625 -2.4375 C 7.628906 -4.0625 6.75 -6.726562 6.75 -10.4375 L 6.75 -32.921875 L 1.8125 -32.921875 L 1.8125 -38.140625 L 6.75 -38.140625 L 6.75 -47.734375 L 13.078125 -47.734375 L 13.078125 -38.140625 L 23.03125 -38.140625 L 23.03125 -32.921875 Z M 13.078125 -32.921875 "/></g></g></g><g clip-path="url(#ca38e6e9c8)"><g clip-path="url(#4ed3e9d6d1)"><g transform="matrix(1, 0, 0, 1, 286, 88)"><g clip-path="url(#5b430e3e69)"><g clip-path="url(#e17fed01c0)"><g clip-path="url(#2bee2f127f)"><path fill="#ef8354" d="M 0.96875 0.984375 L 16.046875 0.984375 L 16.046875 16.0625 L 0.96875 16.0625 Z M 0.96875 0.984375 " fill-opacity="1" fill-rule="nonzero"/></g></g></g></g></g></g></svg>