<svg xmlns="http://www.w3.org/2000/svg" xmlns:xlink="http://www.w3.org/1999/xlink" width="500" zoomAndPan="magnify" viewBox="0 0 375 374.999991" height="500" preserveAspectRatio="xMidYMid meet" version="1.0"><defs><clipPath id="65bd7b5ce3"><path d="M 133 131.34375 L 188 131.34375 L 188 231 L 133 231 Z M 133 131.34375 " clip-rule="nonzero"/></clipPath><clipPath id="a0e45ad00a"><path d="M 190 131.34375 L 243 131.34375 L 243 231 L 190 231 Z M 190 131.34375 " clip-rule="nonzero"/></clipPath><clipPath id="66af46a7d5"><path d="M 112.5 152 L 262.5 152 L 262.5 243.84375 L 112.5 243.84375 Z M 112.5 152 " clip-rule="nonzero"/></clipPath><clipPath id="20397d36aa"><path d="M 140.027344 104.5 L 235.277344 104.5 L 235.277344 213.25 L 140.027344 213.25 Z M 140.027344 104.5 " clip-rule="nonzero"/></clipPath></defs><g clip-path="url(#65bd7b5ce3)"><path fill="#ffffff" d="M 133.710938 171.941406 L 133.710938 212.507812 L 136.023438 212.65625 C 152.78125 213.769531 169.195312 219.019531 183.101562 227.742188 C 184.644531 228.707031 186.210938 229.691406 186.59375 229.949219 L 187.28125 230.398438 L 187.28125 151.242188 L 186.273438 150.34375 C 179.160156 144.042969 168.875 138.277344 159.101562 135.148438 C 152.007812 132.878906 142.839844 131.355469 136.132812 131.355469 L 133.710938 131.355469 Z M 133.710938 171.941406 " fill-opacity="1" fill-rule="nonzero"/></g><g clip-path="url(#a0e45ad00a)"><path fill="#ffffff" d="M 234.101562 131.679688 C 218.800781 133.199219 204.46875 139.308594 192.058594 149.550781 L 190.089844 151.179688 L 190.089844 190.757812 C 190.066406 212.550781 190.109375 230.355469 190.152344 230.355469 C 190.21875 230.355469 191.503906 229.542969 193.003906 228.558594 C 200.265625 223.820312 207.488281 220.328125 215.996094 217.480469 C 224.03125 214.757812 231.210938 213.34375 240.273438 212.679688 L 242.136719 212.527344 L 242.136719 131.355469 L 239.523438 131.378906 C 238.066406 131.398438 235.644531 131.527344 234.101562 131.679688 Z M 234.101562 131.679688 " fill-opacity="1" fill-rule="nonzero"/></g><path fill="#ffffff" d="M 127.175781 143.570312 C 126.359375 143.808594 125.136719 144.171875 124.496094 144.386719 L 123.316406 144.792969 L 123.253906 185.851562 L 123.210938 226.929688 L 150.039062 226.929688 L 176.886719 226.90625 L 174.101562 225.730469 C 170.886719 224.355469 164.394531 222.105469 160.496094 221.035156 C 151.882812 218.65625 142.902344 217.328125 132.808594 216.941406 L 128.996094 216.8125 L 128.996094 179.980469 C 128.996094 159.730469 128.929688 143.144531 128.84375 143.164062 C 128.738281 143.164062 128.007812 143.355469 127.175781 143.570312 Z M 127.175781 143.570312 " fill-opacity="1" fill-rule="nonzero"/><path fill="#ffffff" d="M 246.425781 180.128906 L 246.425781 217.070312 L 242.929688 217.070312 C 230.480469 217.070312 215.824219 220.265625 202.816406 225.8125 L 200.460938 226.820312 L 217.386719 226.929688 C 226.710938 226.992188 238.238281 226.992188 243.058594 226.949219 L 251.78125 226.886719 L 251.738281 185.828125 L 251.675781 144.792969 L 250.496094 144.386719 C 249.851562 144.171875 248.675781 143.808594 247.882812 143.570312 L 246.425781 143.164062 Z M 246.425781 180.128906 " fill-opacity="1" fill-rule="nonzero"/><g clip-path="url(#66af46a7d5)"><path fill="#ffffff" d="M 114.960938 152.550781 C 113.953125 153.019531 113.050781 153.921875 112.730469 154.777344 C 112.558594 155.207031 112.496094 167.441406 112.496094 194.742188 C 112.496094 232.734375 112.515625 234.128906 112.902344 234.984375 C 113.351562 235.949219 114.339844 236.808594 115.472656 237.191406 C 116.007812 237.363281 124.238281 237.429688 145.773438 237.429688 L 175.324219 237.429688 L 176.546875 238.691406 C 178.710938 240.921875 181.859375 242.613281 185.179688 243.300781 C 187.238281 243.730469 191.179688 243.75 193.089844 243.34375 C 196.238281 242.65625 199.945312 240.664062 201.875 238.5625 L 202.816406 237.535156 L 231.125 237.429688 L 259.429688 237.320312 L 260.460938 236.679688 C 261.144531 236.25 261.660156 235.714844 262.003906 235.09375 L 262.496094 234.148438 L 262.496094 194.851562 C 262.496094 152.121094 262.558594 154.777344 261.359375 153.449219 C 260.460938 152.464844 259.367188 152.144531 256.882812 152.144531 L 254.566406 152.144531 L 254.566406 229.714844 L 226.667969 229.757812 C 211.300781 229.777344 198.382812 229.820312 197.929688 229.820312 C 197.222656 229.84375 197.050781 229.972656 196.515625 230.808594 C 193.730469 235.222656 186.980469 236.058594 183.101562 232.480469 C 182.546875 231.964844 181.816406 231.128906 181.453125 230.636719 L 180.832031 229.714844 L 120.425781 229.714844 L 120.425781 152.144531 L 118.132812 152.144531 C 116.332031 152.144531 115.625 152.25 114.960938 152.550781 Z M 114.960938 152.550781 " fill-opacity="1" fill-rule="nonzero"/></g><g clip-path="url(#20397d36aa)"><path fill="#ef8354" d="M 145.042969 159.523438 L 161.453125 159.523438 C 164.472656 159.523438 166.925781 157.074219 166.925781 154.054688 L 166.925781 137.640625 C 166.925781 137.542969 166.902344 137.453125 166.894531 137.355469 L 181.167969 123.085938 L 189.089844 123.085938 L 199.078125 133.074219 C 198.917969 133.671875 198.808594 134.289062 198.808594 134.9375 L 198.808594 156.820312 C 198.808594 157.472656 198.921875 158.085938 199.078125 158.6875 L 193.621094 164.140625 C 193.527344 164.136719 193.4375 164.113281 193.335938 164.113281 L 176.925781 164.113281 C 173.90625 164.113281 171.453125 166.5625 171.453125 169.582031 L 171.453125 185.996094 C 171.453125 189.015625 173.90625 191.464844 176.925781 191.464844 L 193.335938 191.464844 C 193.4375 191.464844 193.527344 191.445312 193.621094 191.4375 L 202.21875 200.035156 L 202.21875 209.46875 C 202.21875 211.480469 203.851562 213.117188 205.867188 213.117188 L 216.808594 213.117188 C 218.820312 213.117188 220.453125 211.480469 220.453125 209.46875 L 220.453125 198.527344 C 220.453125 196.515625 218.820312 194.878906 216.808594 194.878906 L 207.375 194.878906 L 198.777344 186.285156 C 198.78125 186.1875 198.808594 186.09375 198.808594 186 L 198.808594 169.585938 C 198.808594 169.488281 198.785156 169.398438 198.777344 169.300781 L 204.234375 163.847656 C 204.832031 164.007812 205.453125 164.117188 206.101562 164.117188 L 227.980469 164.117188 C 232.011719 164.117188 235.277344 160.851562 235.277344 156.820312 L 235.277344 134.9375 C 235.277344 130.910156 232.011719 127.644531 227.980469 127.644531 L 206.097656 127.644531 C 205.449219 127.644531 204.832031 127.757812 204.230469 127.914062 L 194.246094 117.929688 L 194.246094 108.496094 C 194.246094 106.484375 192.613281 104.851562 190.597656 104.851562 L 179.65625 104.851562 C 177.644531 104.851562 176.011719 106.484375 176.011719 108.496094 L 176.011719 117.929688 L 161.734375 132.203125 C 161.640625 132.199219 161.550781 132.175781 161.449219 132.175781 L 145.039062 132.175781 C 142.019531 132.175781 139.566406 134.625 139.566406 137.644531 L 139.566406 154.058594 C 139.566406 157.078125 142.019531 159.527344 145.039062 159.527344 Z M 145.042969 159.523438 " fill-opacity="1" fill-rule="nonzero"/></g></svg>